<svg xmlns="http://www.w3.org/2000/svg" version="1.1" xmlns:xlink="http://www.w3.org/1999/xlink" xmlns:svgjs="http://svgjs.com/svgjs" width="500" height="50" preserveAspectRatio="none" viewBox="0 0 500 50"><g mask="url(&quot;#SvgjsMask1184&quot;)" fill="none"><rect width="500" height="50" x="0" y="0" fill="rgba(255, 99, 52, 1)"></rect><path d="M185.898,45.475C189.558,45.329,191.484,41.432,193.034,38.113C194.298,35.407,194.732,32.343,193.241,29.754C191.747,27.16,188.89,25.808,185.898,25.721C182.727,25.628,179.464,26.619,177.773,29.303C175.978,32.151,176.192,35.717,177.703,38.725C179.406,42.114,182.108,45.626,185.898,45.475" fill="rgba(255, 255, 255, 0.86)" class="triangle-float1"></path><path d="M269.316,28.771C273.472,28.877,277.339,26.609,279.429,23.016C281.53,19.403,281.659,14.875,279.467,11.316C277.369,7.909,273.301,6.227,269.316,6.59C265.856,6.905,263.674,9.908,261.929,12.912C260.171,15.936,258.58,19.351,260.057,22.522C261.742,26.14,265.326,28.669,269.316,28.771" fill="rgba(255, 255, 255, 0.86)" class="triangle-float2"></path><path d="M75.239,15.148C78.509,15.266,81.933,14.176,83.568,11.342C85.202,8.509,84.512,4.947,82.688,2.233C81.066,-0.18,78.146,-1.131,75.239,-1.047C72.496,-0.967,69.954,0.315,68.505,2.645C66.967,5.119,66.51,8.211,67.891,10.776C69.34,13.466,72.186,15.038,75.239,15.148" fill="rgba(255, 255, 255, 0.86)" class="triangle-float3"></path><path d="M85.017,34.239C88.414,34.24,90.569,31.003,92.219,28.033C93.805,25.178,95.129,21.807,93.493,18.981C91.859,16.159,88.278,15.58,85.017,15.594C81.787,15.608,78.281,16.256,76.664,19.052C75.045,21.851,76.267,25.194,77.825,28.027C79.461,31.002,81.622,34.238,85.017,34.239" fill="rgba(255, 255, 255, 0.86)" class="triangle-float3"></path><path d="M8.704,44.214C12.771,44.112,15.503,40.569,17.563,37.061C19.661,33.49,21.385,29.391,19.609,25.649C17.602,21.422,13.383,18.441,8.704,18.397C3.957,18.352,-0.422,21.204,-2.563,25.441C-4.528,29.329,-3.205,33.792,-0.963,37.527C1.198,41.127,4.506,44.32,8.704,44.214" fill="rgba(255, 255, 255, 0.86)" class="triangle-float1"></path><path d="M498.021,34.36C501.222,34.583,504.58,33.319,506.139,30.514C507.666,27.768,506.578,24.515,505.009,21.793C503.438,19.068,501.165,16.337,498.021,16.434C494.976,16.528,493.081,19.466,491.746,22.204C490.603,24.549,490.454,27.187,491.651,29.505C492.964,32.048,495.166,34.161,498.021,34.36" fill="rgba(255, 255, 255, 0.86)" class="triangle-float3"></path><path d="M298.23,37.738C300.861,37.617,302.517,35.153,303.706,32.803C304.756,30.728,305.195,28.305,304.019,26.298C302.854,24.31,300.533,23.396,298.23,23.46C296.041,23.52,294.162,24.767,292.969,26.604C291.637,28.655,290.763,31.138,291.808,33.349C292.995,35.862,295.454,37.865,298.23,37.738" fill="rgba(255, 255, 255, 0.86)" class="triangle-float3"></path><path d="M132.749,48.032C134.9,48.093,136.782,46.691,137.847,44.821C138.901,42.971,139.114,40.66,137.972,38.863C136.896,37.17,134.755,36.789,132.749,36.8C130.768,36.811,128.64,37.219,127.625,38.92C126.591,40.653,127.139,42.787,128.128,44.546C129.142,46.349,130.682,47.973,132.749,48.032" fill="rgba(255, 255, 255, 0.86)" class="triangle-float1"></path><path d="M222.148,59.894C225.181,59.735,227.147,56.986,228.535,54.285C229.779,51.864,230.176,49.101,228.938,46.677C227.578,44.012,225.139,41.702,222.148,41.773C219.241,41.842,217.353,44.471,215.897,46.988C214.438,49.51,213.215,52.398,214.485,55.021C215.899,57.941,218.908,60.064,222.148,59.894" fill="rgba(255, 255, 255, 0.86)" class="triangle-float3"></path><path d="M209.174,24.642C210.959,24.599,212.823,24.031,213.671,22.459C214.488,20.944,213.825,19.164,212.919,17.701C212.072,16.332,210.779,15.324,209.174,15.194C207.293,15.042,205.239,15.416,204.208,16.996C203.098,18.698,203.181,20.98,204.288,22.684C205.312,24.262,207.294,24.687,209.174,24.642" fill="rgba(255, 255, 255, 0.86)" class="triangle-float3"></path><path d="M330.884,33.36C335.43,33.488,339.06,29.982,341.28,26.012C343.439,22.151,344.049,17.516,341.908,13.645C339.701,9.655,335.438,6.972,330.884,7.215C326.659,7.441,323.67,10.965,321.727,14.723C319.965,18.13,319.76,22.012,321.452,25.455C323.391,29.401,326.489,33.237,330.884,33.36" fill="rgba(255, 255, 255, 0.86)" class="triangle-float1"></path><path d="M136.162,22.751C139.295,22.801,142.64,21.895,144.158,19.154C145.642,16.473,144.374,13.334,142.847,10.678C141.313,8.011,139.238,5.318,136.162,5.248C132.999,5.176,130.465,7.595,128.932,10.363C127.452,13.035,127.055,16.269,128.595,18.907C130.123,21.526,133.13,22.703,136.162,22.751" fill="rgba(255, 255, 255, 0.86)" class="triangle-float3"></path><path d="M468.832,22.98C472.026,23.109,475.683,22.906,477.325,20.163C478.993,17.375,477.492,14.011,475.892,11.183C474.258,8.295,472.15,5.128,468.832,5.148C465.534,5.168,463.427,8.335,461.92,11.269C460.571,13.896,459.949,16.978,461.45,19.521C462.93,22.029,465.922,22.862,468.832,22.98" fill="rgba(255, 255, 255, 0.86)" class="triangle-float3"></path><path d="M346.802,58.447C350.973,58.405,354.361,55.474,356.439,51.858C358.509,48.256,359.324,43.861,357.253,40.26C355.177,36.65,350.958,34.851,346.802,35.103C343.039,35.331,340.251,38.158,338.338,41.407C336.388,44.719,335.112,48.614,336.822,52.056C338.705,55.848,342.568,58.49,346.802,58.447" fill="rgba(255, 255, 255, 0.86)" class="triangle-float1"></path><path d="M260.491,23.591C263.161,23.554,265.82,22.665,267.255,20.414C268.799,17.992,269.026,14.897,267.636,12.384C266.203,9.793,263.452,8.16,260.491,8.181C257.564,8.202,254.971,9.941,253.519,12.483C252.08,15.003,251.853,18.147,253.396,20.605C254.858,22.934,257.741,23.629,260.491,23.591" fill="rgba(255, 255, 255, 0.86)" class="triangle-float3"></path><path d="M210.804,43.806C213.094,43.791,215.236,42.734,216.469,40.804C217.809,38.706,218.498,35.964,217.152,33.869C215.873,31.879,213.169,31.954,210.804,31.989C208.527,32.023,206.017,32.144,204.774,34.052C203.442,36.096,203.729,38.803,205.012,40.878C206.231,42.851,208.485,43.821,210.804,43.806" fill="rgba(255, 255, 255, 0.86)" class="triangle-float1"></path><path d="M367.191,44.684C371.015,44.563,373.732,41.52,375.78,38.288C378.043,34.717,380.626,30.455,378.537,26.779C376.436,23.081,371.444,23.123,367.191,23.175C363.066,23.225,358.466,23.53,356.315,27.05C354.101,30.673,355.375,35.25,357.604,38.864C359.707,42.275,363.186,44.811,367.191,44.684" fill="rgba(255, 255, 255, 0.86)" class="triangle-float3"></path><path d="M392.218,30.954C394.457,30.915,396.167,29.088,397.137,27.07C397.979,25.318,397.64,23.344,396.691,21.647C395.714,19.9,394.215,18.417,392.218,18.272C389.961,18.108,387.592,18.946,386.454,20.902C385.31,22.867,385.864,25.272,386.995,27.245C388.133,29.23,389.93,30.993,392.218,30.954" fill="rgba(255, 255, 255, 0.86)" class="triangle-float1"></path></g><defs><mask id="SvgjsMask1184"><rect width="500" height="50" fill="#ffffff"></rect></mask><style>
            @keyframes float1 {
                0%{transform: translate(0, 0)}
                50%{transform: translate(-10px, 0)}
                100%{transform: translate(0, 0)}
            }

            .triangle-float1 {
                animation: float1 5s infinite;
            }

            @keyframes float2 {
                0%{transform: translate(0, 0)}
                50%{transform: translate(-5px, -5px)}
                100%{transform: translate(0, 0)}
            }

            .triangle-float2 {
                animation: float2 4s infinite;
            }

            @keyframes float3 {
                0%{transform: translate(0, 0)}
                50%{transform: translate(0, -10px)}
                100%{transform: translate(0, 0)}
            }

            .triangle-float3 {
                animation: float3 6s infinite;
            }
        </style></defs></svg>